<svg width="72" height="72" viewBox="0 0 72 72" fill="none" xmlns="http://www.w3.org/2000/svg">
<rect width="72" height="72" rx="36" fill="#37C290"/>
<g clip-path="url(#clip0_8354_6)">
<path fill-rule="evenodd" clip-rule="evenodd" d="M53.4409 27.4745C53.2769 27.4745 53.1363 27.4276 52.9957 27.3573L50.5821 26.0216L48.1685 27.3573C47.8639 27.5213 47.4655 27.4979 47.1609 27.287C46.8797 27.0761 46.7391 26.7012 46.8094 26.3497L47.3249 23.6549L45.3097 21.7803C45.0519 21.5225 44.9582 21.1476 45.0753 20.7961C45.1691 20.468 45.4737 20.2103 45.8486 20.1634L48.5668 19.8119L49.7385 17.328C49.8791 17 50.2072 16.7891 50.5821 16.7891C50.9336 16.7891 51.2616 17 51.4257 17.328L52.5973 19.8119L55.3155 20.1634C55.6905 20.2103 55.9717 20.468 56.0888 20.7961C56.206 21.1476 56.1123 21.5225 55.8545 21.7803L53.8393 23.6549L54.3548 26.3497C54.4251 26.7012 54.2845 27.0761 53.9799 27.287C53.8158 27.4042 53.6284 27.4745 53.4409 27.4745ZM26.1415 51.1886H20.6817C20.1661 51.1886 19.7444 50.7668 19.7444 50.2513V43.901H17.94C17.5885 43.901 17.2605 43.7135 17.0964 43.3854C16.9558 43.0574 16.9793 42.6824 17.1902 42.4012L22.6735 35.1136C22.8375 34.8793 23.1187 34.7387 23.4233 34.7387C23.7045 34.7387 23.9857 34.8793 24.1732 35.1136L29.5627 42.3309C29.7268 42.495 29.8205 42.7293 29.8205 42.9636C29.8205 43.4792 29.3987 43.901 28.8832 43.901H27.0789V50.2513C27.0789 50.7668 26.6571 51.1886 26.1415 51.1886ZM21.619 49.314H25.2042V42.9636C25.2042 42.4481 25.626 42.0263 26.1415 42.0263H27.0086L23.4233 37.246L19.8147 42.0263H20.6817C21.1972 42.0263 21.619 42.4481 21.619 42.9636V49.314ZM39.7326 51.1886H34.2493C33.7338 51.1886 33.3354 50.7668 33.3354 50.2513V41.1593H31.5311C31.1796 41.1593 30.8516 40.9484 30.6875 40.6438C30.5235 40.3157 30.5704 39.9408 30.7813 39.6596L36.2411 32.372C36.4286 32.1376 36.7098 31.997 36.991 31.997C37.2956 31.997 37.5768 32.1376 37.7408 32.372L43.1538 39.5893C43.3179 39.7533 43.4116 39.9642 43.4116 40.222C43.4116 40.7375 42.9898 41.1593 42.4743 41.1593H40.67V50.2513C40.67 50.7668 40.2482 51.1886 39.7326 51.1886ZM35.1866 49.314H38.7953V40.222C38.7953 39.7065 39.2171 39.2847 39.7326 39.2847H40.5997L36.991 34.4809L33.4057 39.2847H34.2493C34.7883 39.2847 35.1866 39.7065 35.1866 40.222V49.314ZM53.3237 51.1886H47.8404C47.3249 51.1886 46.9031 50.7668 46.9031 50.2513V38.4177H45.0988C44.7473 38.4177 44.4192 38.2068 44.2786 37.9021C44.1146 37.5741 44.138 37.1991 44.3489 36.9179L49.8322 29.6303C49.9963 29.396 50.2775 29.2554 50.5821 29.2554C50.8633 29.2554 51.1445 29.396 51.3319 29.6303L56.7449 36.8476C56.8855 37.0117 57.0027 37.2226 57.0027 37.4803C57.0027 37.9959 56.5809 38.4177 56.0654 38.4177C56.042 38.4177 56.042 38.4177 56.042 38.4177H54.261V50.2513C54.261 50.7668 53.8393 51.1886 53.3237 51.1886ZM48.7777 49.314H52.3864V37.4803C52.3864 36.9648 52.7848 36.543 53.3237 36.543H54.1673L50.5821 31.7393L46.9734 36.543H47.8404C48.356 36.543 48.7777 36.9648 48.7777 37.4803V49.314ZM20.5645 34.0591C20.3536 34.0591 20.1661 33.9888 20.0021 33.8717C19.7209 33.6608 19.5569 33.2858 19.6272 32.9343L20.1427 30.2396L18.1509 28.3649C17.8932 28.1072 17.776 27.7322 17.8932 27.3807C18.0103 27.0527 18.3149 26.7949 18.6664 26.7481L21.4081 26.3966L22.5563 23.9127C22.7203 23.5846 23.0484 23.3737 23.4233 23.3737C23.7748 23.3737 24.1029 23.5846 24.2669 23.9127L25.4386 26.3966L28.1568 26.7481C28.5083 26.7949 28.8129 27.0527 28.9301 27.3807C29.0472 27.7322 28.9301 28.1072 28.6723 28.3649L26.6805 30.2396L27.196 32.9343C27.2663 33.2858 27.1023 33.6608 26.8211 33.8717C26.5165 34.0826 26.1415 34.106 25.8135 33.942L23.4233 32.6063L21.0097 33.942C20.8691 34.0123 20.7051 34.0591 20.5645 34.0591ZM20.8926 28.3649L21.8064 29.2319C22.0408 29.4428 22.1579 29.7709 22.0876 30.0755L21.8533 31.3409L22.9547 30.7317C23.2359 30.5676 23.5874 30.5676 23.8685 30.7317L24.9699 31.3409L24.7356 30.0755C24.6653 29.7709 24.7824 29.4428 25.0168 29.2319L25.9306 28.3649L24.6887 28.2009C24.3606 28.154 24.0794 27.9666 23.9623 27.6619L23.4233 26.5137L22.8844 27.6619C22.7438 27.9666 22.4626 28.154 22.1345 28.2009L20.8926 28.3649ZM34.1322 30.9894C33.9447 30.9894 33.7572 30.9191 33.5932 30.802C33.2886 30.5911 33.148 30.2161 33.2183 29.8646L33.7338 27.1698L31.742 25.2952C31.4608 25.0375 31.3671 24.6625 31.4842 24.311C31.6014 23.983 31.906 23.7252 32.2575 23.6783L34.9758 23.3503L36.1474 20.843C36.3114 20.5149 36.6395 20.304 36.991 20.304C37.3659 20.304 37.694 20.5149 37.8346 20.843L39.0062 23.3503L41.7244 23.6783C42.0994 23.7252 42.404 23.983 42.5212 24.311C42.6149 24.6625 42.5212 25.0375 42.2634 25.2952L40.2482 27.1698L40.7637 29.8646C40.834 30.2161 40.6934 30.5911 40.4122 30.802C40.1076 31.0128 39.7092 31.0363 39.4046 30.8722L36.991 29.5366L34.6008 30.8722C34.4602 30.9425 34.2962 30.9894 34.1322 30.9894ZM34.4602 25.2952L35.3975 26.1622C35.6319 26.3731 35.7256 26.7012 35.6787 27.0293L35.4444 28.2712L36.5458 27.6619C36.827 27.4979 37.155 27.4979 37.4362 27.6619L38.561 28.2712L38.3267 27.0293C38.2564 26.7012 38.3735 26.3731 38.6079 26.1622L39.5217 25.2952L38.2564 25.1312C37.9517 25.0843 37.6705 24.8969 37.5299 24.5922L36.991 23.444L36.452 24.5922C36.3114 24.8969 36.0537 25.0843 35.7256 25.1312L34.4602 25.2952ZM50.5821 24.0298C50.7461 24.0298 50.8867 24.0533 51.0273 24.147L52.1521 24.7563L51.8943 23.5143C51.8475 23.1863 51.9412 22.8582 52.1755 22.6473L53.1128 21.7803L51.8475 21.6162C51.5194 21.5694 51.2616 21.3819 51.121 21.0773L50.5821 19.9291L50.0431 21.0773C49.9025 21.3819 49.6213 21.5694 49.3167 21.6162L48.0513 21.7803L48.9652 22.6473C49.1995 22.8582 49.3167 23.1863 49.2464 23.5143L49.0121 24.7563L50.1369 24.147C50.2775 24.0533 50.418 24.0298 50.5821 24.0298Z" fill="white"/>
</g>
<defs>
<clipPath id="clip0_8354_6">
<rect width="40" height="40" fill="white" transform="translate(17 14.0005)"/>
</clipPath>
</defs>
</svg>
