<svg width="72" height="72" viewBox="0 0 72 72" fill="none" xmlns="http://www.w3.org/2000/svg">
<path d="M0 35.9995C0 16.1173 16.1177 -0.000488281 36 -0.000488281V-0.000488281C55.8823 -0.000488281 72 16.1173 72 35.9995V35.9995C72 55.8818 55.8823 71.9995 36 71.9995V71.9995C16.1177 71.9995 0 55.8818 0 35.9995V35.9995Z" fill="#348BF2"/>
<g clip-path="url(#clip0_8354_4)">
<path d="M50.1422 22.8578C46.3647 19.0804 41.3421 17 36 17C30.6579 17 25.6353 19.0804 21.8578 22.8578C18.0804 26.6353 16 31.6579 16 37C16 42.3421 18.0804 47.3647 21.8578 51.1422C25.6353 54.9196 30.6579 57 36 57C41.3421 57 46.3647 54.9196 50.1422 51.1422C53.9196 47.3647 56 42.3421 56 37C56 31.6579 53.9196 26.6353 50.1422 22.8578ZM24.6801 50.5388C25.3405 44.8564 30.2261 40.4692 36 40.4692C39.0438 40.4692 41.9061 41.6552 44.0591 43.8079C45.8779 45.627 47.0251 48.0022 47.3202 50.5385C44.2532 53.1072 40.3042 54.6562 36 54.6562C31.6958 54.6562 27.7471 53.1075 24.6801 50.5388ZM36 38.0553C32.6507 38.0553 29.9255 35.3301 29.9255 31.9808C29.9255 28.6312 32.6507 25.9062 36 25.9062C39.3493 25.9062 42.0745 28.6312 42.0745 31.9808C42.0745 35.3301 39.3493 38.0553 36 38.0553ZM49.3374 48.5573C48.7402 46.1495 47.4948 43.9293 45.7162 42.1508C44.2758 40.7103 42.5717 39.6297 40.7131 38.9525C42.9473 37.4373 44.4183 34.8775 44.4183 31.9808C44.4183 27.3391 40.6417 23.5625 36 23.5625C31.3583 23.5625 27.5817 27.3391 27.5817 31.9808C27.5817 34.879 29.0539 37.4398 31.2899 38.9547C29.58 39.5778 27.9977 40.5413 26.6363 41.8096C24.6649 43.6455 23.2958 45.9865 22.6611 48.5555C19.9728 45.4564 18.3438 41.415 18.3438 37C18.3438 27.2643 26.2643 19.3438 36 19.3438C45.7357 19.3438 53.6562 27.2643 53.6562 37C53.6562 41.4159 52.0266 45.4583 49.3374 48.5573Z" fill="white"/>
</g>
<defs>
<clipPath id="clip0_8354_4">
<rect width="40" height="40" fill="white" transform="translate(16 17)"/>
</clipPath>
</defs>
</svg>
