<svg width="72" height="72" viewBox="0 0 72 72" fill="none" xmlns="http://www.w3.org/2000/svg">
<rect y="-0.000488281" width="72" height="72" rx="36" fill="#D04D42"/>
<g clip-path="url(#clip0_8354_5)">
<path d="M51.945 54H18.0547C17.4722 54 17 53.5278 17 52.9453C17 52.3628 17.4722 51.8906 18.0547 51.8906H51.945C52.5275 51.8906 52.9997 52.3628 52.9997 52.9453C52.9997 53.5278 52.5275 54 51.945 54Z" fill="white"/>
<path d="M24.4531 53.9999H20.2344C19.6519 53.9999 19.1797 53.5277 19.1797 52.9452V45.2109C19.1797 44.2417 19.9682 43.4531 20.9375 43.4531H23.75C24.7192 43.4531 25.5078 44.2417 25.5078 45.2109V52.9452C25.5078 53.5277 25.0355 53.9999 24.4531 53.9999ZM21.289 51.8906H23.3984V45.5625H21.289V51.8906ZM23.75 45.5625H23.7507H23.75Z" fill="white"/>
<path d="M32.8906 53.9999H28.6719C28.0894 53.9999 27.6172 53.5277 27.6172 52.9452V42.6797C27.6172 41.7104 28.4057 40.9219 29.375 40.9219H32.1875C33.1567 40.9219 33.9453 41.7104 33.9453 42.6797V52.9452C33.9453 53.5277 33.473 53.9999 32.8906 53.9999ZM29.7265 51.8905H31.8359V43.0312H29.7265V51.8905ZM32.1875 43.0312H32.1882H32.1875Z" fill="white"/>
<path d="M41.3281 54.0001H37.1094C36.5269 54.0001 36.0547 53.5279 36.0547 52.9454V38.8127C36.0547 37.8435 36.8432 37.0549 37.8125 37.0549H40.625C41.5942 37.0549 42.3828 37.8435 42.3828 38.8127V52.9454C42.3828 53.5279 41.9105 54.0001 41.3281 54.0001ZM38.164 51.8908H40.2734V39.1643H38.164V51.8908ZM40.625 39.1643H40.6257H40.625Z" fill="white"/>
<path d="M49.7656 54.0001H45.5469C44.9644 54.0001 44.4922 53.5278 44.4922 52.9454V31.7815C44.4922 30.8122 45.2807 30.0237 46.25 30.0237H49.0625C50.0317 30.0237 50.8203 30.8122 50.8203 31.7815V52.9454C50.8203 53.5278 50.348 54.0001 49.7656 54.0001ZM46.6015 51.8907H48.7109V32.133H46.6015V51.8907ZM49.0625 32.133H49.0632H49.0625Z" fill="white"/>
<path d="M18.0547 40.6621C17.4722 40.6621 17 40.1899 17 39.6074C17 39.025 17.4722 38.5528 18.0547 38.5528C24.2566 38.5528 31.0092 36.2943 37.0685 32.1935C42.6429 28.4209 47.0848 23.4752 49.2552 18.6244C49.4931 18.0927 50.117 17.8545 50.6486 18.0925C51.1803 18.3304 51.4185 18.9543 51.1805 19.486C48.8542 24.6853 44.1415 29.9538 38.2508 33.9404C31.8462 38.275 24.6736 40.6621 18.0547 40.6621Z" fill="white"/>
<path d="M51.9456 26.5554C51.4798 26.5554 51.0537 26.2446 50.9275 25.7733L49.4734 20.3466L44.0466 21.8007C43.4838 21.9516 42.9057 21.6176 42.7549 21.055C42.6042 20.4924 42.938 19.914 43.5007 19.7633L49.9462 18.0362C50.509 17.8854 51.0871 18.2194 51.2379 18.7819L52.9649 25.2274C53.1157 25.7901 52.7819 26.3684 52.2192 26.5191C52.1277 26.5436 52.0359 26.5554 51.9456 26.5554Z" fill="white"/>
</g>
<defs>
<clipPath id="clip0_8354_5">
<rect width="36" height="36" fill="white" transform="translate(17 18)"/>
</clipPath>
</defs>
</svg>
