<svg width="72" height="72" viewBox="0 0 72 72" fill="none" xmlns="http://www.w3.org/2000/svg">
<rect y="-0.000488281" width="72" height="72" rx="36" fill="#C2379C"/>
<path d="M36.0024 14C26.4377 14 18.6562 21.7814 18.6562 31.3461C18.6562 37.307 21.6788 42.5749 26.2716 45.6986V56.7307C26.2716 57.1614 26.49 57.5627 26.8517 57.7965C27.2132 58.0303 27.6689 58.0647 28.0617 57.8881L36.0024 54.3149L43.9431 57.8882C44.1094 57.963 44.2869 58 44.4638 58C44.7048 58 44.9445 57.9314 45.1531 57.7966C45.5147 57.5627 45.7332 57.1614 45.7332 56.7308V45.6987C50.3259 42.575 53.3485 37.3071 53.3485 31.3462C53.3485 21.7814 45.5671 14 36.0024 14ZM43.1947 54.7679L36.5232 51.7658C36.3576 51.6912 36.1799 51.6539 36.0024 51.6539C35.8248 51.6539 35.6472 51.6911 35.4816 51.7657L28.8101 54.7678V47.1335C29.448 47.4244 30.1028 47.6743 30.7699 47.8851C30.8077 47.8971 30.8455 47.9094 30.8834 47.9211C30.9686 47.9473 31.054 47.9726 31.1395 47.9974C31.2029 48.016 31.2662 48.0343 31.3297 48.0522C31.3987 48.0715 31.468 48.0901 31.5373 48.1085C31.618 48.1301 31.699 48.1511 31.7802 48.1716C31.8376 48.1859 31.8951 48.2 31.9527 48.2137C32.0461 48.2361 32.1398 48.2578 32.2338 48.2787C32.2825 48.2895 32.3313 48.3002 32.3801 48.3106C32.4831 48.3326 32.5864 48.3534 32.6901 48.3736C32.7323 48.3818 32.7745 48.3901 32.8168 48.398C32.9266 48.4185 33.0369 48.4376 33.1474 48.456C33.1853 48.4624 33.2232 48.4689 33.2612 48.4749C33.3752 48.4932 33.4898 48.5099 33.6046 48.5258C33.6402 48.5307 33.6757 48.536 33.7113 48.5408C33.8276 48.5562 33.9444 48.57 34.0612 48.5831C34.0961 48.5869 34.1308 48.5913 34.1657 48.5951C34.2824 48.6075 34.3994 48.618 34.5167 48.628C34.5523 48.631 34.5877 48.6347 34.6234 48.6375C34.7389 48.6466 34.855 48.6539 34.9713 48.6607C35.0086 48.663 35.0457 48.6659 35.0832 48.6679C35.2007 48.6741 35.3186 48.6783 35.4367 48.6821C35.4722 48.6833 35.5076 48.6851 35.5431 48.6861C35.6958 48.69 35.8489 48.6923 36.0026 48.6923C36.1561 48.6923 36.3093 48.69 36.4619 48.6861C36.4975 48.6851 36.5328 48.6833 36.5684 48.6821C36.6865 48.6783 36.8044 48.674 36.9218 48.6679C36.9591 48.6659 36.9963 48.663 37.0337 48.6607C37.15 48.6539 37.2661 48.6466 37.3817 48.6375C37.4174 48.6347 37.4528 48.631 37.4883 48.628C37.6056 48.618 37.7227 48.6074 37.8393 48.5951C37.8742 48.5914 37.9089 48.587 37.9438 48.5831C38.0608 48.5699 38.1775 48.5562 38.2937 48.5408C38.3294 48.536 38.3648 48.5308 38.4004 48.5258C38.5152 48.5099 38.6298 48.4932 38.7439 48.4749C38.7819 48.4688 38.8197 48.4623 38.8577 48.456C38.9682 48.4376 39.0784 48.4185 39.1883 48.398C39.2305 48.3901 39.2727 48.3819 39.3149 48.3736C39.4186 48.3535 39.5219 48.3325 39.6249 48.3106C39.6738 48.3002 39.7225 48.2895 39.7713 48.2787C39.8653 48.2578 39.959 48.2361 40.0524 48.2137C40.1099 48.1999 40.1674 48.1859 40.2248 48.1716C40.3061 48.1512 40.3869 48.1302 40.4678 48.1085C40.5371 48.09 40.6063 48.0716 40.6753 48.0522C40.7388 48.0343 40.8023 48.016 40.8655 47.9974C40.951 47.9725 41.0365 47.9473 41.1216 47.9211C41.1596 47.9093 41.1973 47.897 41.2351 47.8851C41.9023 47.6743 42.557 47.4244 43.1949 47.1336V54.7679H43.1947ZM40.8346 45.3435C40.784 45.3609 40.7333 45.3784 40.6825 45.3954C40.6054 45.4212 40.5279 45.4465 40.4501 45.471C40.3596 45.4994 40.2688 45.5269 40.1778 45.5535C40.1136 45.5724 40.0494 45.5912 39.9848 45.6093C39.8644 45.6429 39.7436 45.675 39.6223 45.7055C39.5771 45.717 39.5318 45.7278 39.4865 45.7388C39.3678 45.7675 39.2486 45.7948 39.1291 45.8206C39.0991 45.8271 39.0692 45.834 39.0392 45.8402C38.885 45.8724 38.7303 45.9024 38.575 45.9296C38.5592 45.9324 38.5433 45.9348 38.5274 45.9376C38.3875 45.9618 38.2472 45.9837 38.1066 46.0037C38.0749 46.0083 38.0431 46.0127 38.0113 46.0171C37.8613 46.0375 37.7111 46.0562 37.5604 46.072C37.5547 46.0726 37.549 46.0734 37.5433 46.074C37.3856 46.0904 37.2272 46.1039 37.0686 46.1152C37.0342 46.1177 36.9997 46.1195 36.9652 46.1218C36.8419 46.1298 36.7186 46.1361 36.5949 46.1411C36.5529 46.1428 36.5109 46.1445 36.4689 46.1459C36.3136 46.1506 36.1581 46.1539 36.0024 46.1539C35.8467 46.1539 35.6912 46.1507 35.5359 46.1457C35.4938 46.1444 35.4518 46.1426 35.4099 46.1409C35.2862 46.136 35.1629 46.1296 35.0395 46.1216C35.0051 46.1194 34.9706 46.1175 34.9362 46.115C34.7776 46.1037 34.6193 46.0902 34.4614 46.0739C34.4558 46.0732 34.4501 46.0725 34.4444 46.0719C34.2937 46.0561 34.1435 46.0373 33.9935 46.017C33.9618 46.0127 33.9301 46.0082 33.8983 46.0036C33.7576 45.9834 33.6173 45.9616 33.4774 45.9375C33.4616 45.9348 33.4457 45.9323 33.4298 45.9295C33.2745 45.9022 33.1197 45.8722 32.9656 45.84C32.9356 45.8337 32.9057 45.8268 32.8756 45.8204C32.7562 45.7947 32.637 45.7673 32.5183 45.7386C32.4729 45.7276 32.4276 45.7168 32.3824 45.7054C32.2612 45.6749 32.1404 45.6426 32.02 45.6091C31.9554 45.5911 31.8911 45.5722 31.8269 45.5533C31.736 45.5266 31.6452 45.4993 31.5546 45.4708C31.4768 45.4462 31.3994 45.421 31.3221 45.3952C31.2713 45.3783 31.2207 45.3607 31.1701 45.3433C25.3707 43.3357 21.1947 37.8197 21.1947 31.3461C21.1947 23.1812 27.8374 16.5384 36.0024 16.5384C44.1674 16.5384 50.8101 23.1811 50.8101 31.3461C50.8101 37.8197 46.634 43.3357 40.8346 45.3435Z" fill="white"/>
<path d="M43.5302 31.3461L45.9142 26.8653C46.1199 26.4788 46.1118 26.0137 45.8929 25.6346C45.674 25.2555 45.2752 25.0158 44.8377 25.0007L39.7652 24.825L37.0767 20.52C36.8448 20.1488 36.438 19.9231 36.0002 19.9231C35.5624 19.9231 35.1556 20.1488 34.9237 20.52L32.2353 24.825L27.1628 25.0007C26.7253 25.0158 26.3265 25.2555 26.1076 25.6346C25.8887 26.0137 25.8805 26.4788 26.0863 26.8653L28.4703 31.3461L26.0863 35.8269C25.8805 36.2133 25.8887 36.6785 26.1076 37.0576C26.3265 37.4366 26.7253 37.6763 27.1628 37.6914L32.2353 37.8672L34.9237 42.1721C35.1555 42.5434 35.5624 42.7691 36.0002 42.7691C36.438 42.7691 36.8448 42.5434 37.0767 42.1721L39.7651 37.8672L44.8376 37.6914C45.2751 37.6763 45.6739 37.4366 45.8928 37.0576C46.1117 36.6785 46.1198 36.2133 45.9141 35.8269L43.5302 31.3461ZM39.0024 35.3536C38.5805 35.3682 38.1934 35.5917 37.9699 35.9498L36.0002 39.1038L34.0306 35.9499C33.807 35.5918 33.4199 35.3684 32.998 35.3537L29.2819 35.2249L31.0284 31.9422C31.2268 31.5695 31.2268 31.1226 31.0284 30.7499L29.2819 27.4673L32.998 27.3385C33.4199 27.3239 33.8071 27.1003 34.0306 26.7422L36.0002 23.5884L37.9698 26.7423C38.1934 27.1004 38.5805 27.3239 39.0023 27.3386L42.7184 27.4674L40.9719 30.75C40.7737 31.1227 40.7737 31.5697 40.972 31.9423L42.7185 35.225L39.0024 35.3536Z" fill="white"/>
</svg>
