<svg width="297" height="75" viewBox="0 0 297 75" fill="none" xmlns="http://www.w3.org/2000/svg">
<path d="M95.348 40H76.808V13.396H95.384V18.94H82.784V23.872H94.448V29.38H82.784V34.456H95.348V40ZM105.015 40H99.3631V20.272H104.871V23.008C105.399 22.048 106.215 21.268 107.319 20.668C108.447 20.044 109.707 19.732 111.099 19.732C113.235 19.732 115.047 20.44 116.535 21.856C118.023 23.272 118.767 25.3 118.767 27.94V40H113.115V29.416C113.115 28 112.767 26.896 112.071 26.104C111.375 25.312 110.439 24.916 109.263 24.916C107.991 24.916 106.959 25.348 106.167 26.212C105.399 27.052 105.015 28.168 105.015 29.56V40ZM137.788 22.216V20.272H142.936V38.056C142.936 41.248 141.892 43.756 139.804 45.58C137.764 47.452 135.124 48.388 131.884 48.388C128.428 48.388 125.356 47.404 122.668 45.436L124.828 41.26C127.084 42.796 129.364 43.564 131.668 43.564C133.492 43.564 134.92 43.084 135.952 42.124C137.008 41.188 137.536 39.976 137.536 38.488V37.732C136.072 39.268 134.128 40.036 131.704 40.036C128.8 40.036 126.436 39.088 124.612 37.192C122.788 35.296 121.875 32.884 121.875 29.956C121.875 26.98 122.836 24.532 124.756 22.612C126.652 20.716 129.04 19.768 131.92 19.768C134.272 19.768 136.228 20.584 137.788 22.216ZM137.608 29.992C137.608 28.528 137.128 27.328 136.168 26.392C135.232 25.432 134.044 24.952 132.604 24.952C131.164 24.952 129.964 25.432 129.004 26.392C128.044 27.328 127.564 28.528 127.564 29.992C127.564 31.48 128.044 32.704 129.004 33.664C129.988 34.648 131.188 35.14 132.604 35.14C134.044 35.14 135.232 34.66 136.168 33.7C137.128 32.74 137.608 31.504 137.608 29.992ZM152.898 12.604V40H147.246V12.604H152.898ZM160.218 18.256C159.258 18.256 158.454 17.944 157.806 17.32C157.158 16.672 156.834 15.868 156.834 14.908C156.834 13.948 157.158 13.156 157.806 12.532C158.454 11.884 159.258 11.56 160.218 11.56C161.154 11.56 161.946 11.884 162.594 12.532C163.242 13.156 163.566 13.948 163.566 14.908C163.566 15.868 163.242 16.672 162.594 17.32C161.946 17.944 161.154 18.256 160.218 18.256ZM162.99 20.272V40H157.338V20.272H162.99ZM174.234 40.54C170.754 40.54 167.946 39.328 165.81 36.904L168.582 33.232C170.286 34.96 172.17 35.824 174.234 35.824C174.954 35.824 175.53 35.68 175.962 35.392C176.418 35.104 176.646 34.72 176.646 34.24C176.646 33.664 176.238 33.184 175.422 32.8C175.158 32.68 174.378 32.392 173.082 31.936C171.69 31.408 170.838 31.072 170.526 30.928C168.174 29.8 166.998 28.06 166.998 25.708C166.998 23.884 167.694 22.42 169.086 21.316C170.502 20.188 172.374 19.624 174.702 19.624C177.558 19.624 179.934 20.536 181.83 22.36L179.202 26.032C177.714 24.808 176.178 24.196 174.594 24.196C173.97 24.196 173.466 24.328 173.082 24.592C172.722 24.856 172.542 25.192 172.542 25.6C172.542 26.32 173.13 26.872 174.306 27.256C176.514 27.976 178.074 28.576 178.986 29.056C181.218 30.232 182.334 31.912 182.334 34.096C182.334 35.944 181.59 37.48 180.102 38.704C178.638 39.928 176.682 40.54 174.234 40.54ZM191.289 40H185.637V12.604H191.145V22.9C191.697 21.988 192.525 21.232 193.629 20.632C194.733 20.032 195.981 19.732 197.373 19.732C199.485 19.732 201.285 20.44 202.773 21.856C204.261 23.272 205.005 25.3 205.005 27.94V40H199.353V29.416C199.353 28 199.005 26.896 198.309 26.104C197.637 25.312 196.713 24.916 195.537 24.916C194.265 24.916 193.233 25.348 192.441 26.212C191.673 27.052 191.289 28.168 191.289 29.56V40ZM215.565 40V15.52H207.501V13.396H225.825V15.52H217.761V40H215.565ZM234.418 40.468C232.042 40.468 230.134 39.748 228.694 38.308C227.278 36.82 226.57 34.876 226.57 32.476V20.74H228.73V32.44C228.73 34.288 229.234 35.752 230.242 36.832C231.274 37.912 232.666 38.452 234.418 38.452C236.218 38.452 237.622 37.912 238.63 36.832C239.638 35.752 240.142 34.276 240.142 32.404V20.74H242.302V32.476C242.302 34.924 241.594 36.868 240.178 38.308C238.786 39.748 236.866 40.468 234.418 40.468ZM258.861 37.12L259.761 38.776C258.369 39.88 256.665 40.432 254.649 40.432C252.753 40.432 251.313 39.844 250.329 38.668C249.345 37.492 248.853 35.836 248.853 33.7V22.648H245.433V20.74H248.889V13.936H251.013V20.74H258.933V22.648H251.013V33.772C251.013 36.892 252.285 38.452 254.829 38.452C256.317 38.452 257.661 38.008 258.861 37.12ZM261.245 30.352C261.245 27.496 262.193 25.108 264.089 23.188C266.009 21.244 268.397 20.272 271.253 20.272C274.109 20.272 276.497 21.244 278.417 23.188C280.313 25.108 281.261 27.496 281.261 30.352C281.261 33.232 280.313 35.632 278.417 37.552C276.497 39.496 274.109 40.468 271.253 40.468C268.397 40.468 266.009 39.496 264.089 37.552C262.193 35.632 261.245 33.232 261.245 30.352ZM271.253 38.488C273.509 38.488 275.381 37.708 276.869 36.148C278.357 34.54 279.101 32.608 279.101 30.352C279.101 28.072 278.357 26.152 276.869 24.592C275.381 23.032 273.509 22.252 271.253 22.252C269.021 22.252 267.149 23.044 265.637 24.628C264.149 26.188 263.405 28.096 263.405 30.352C263.405 32.608 264.149 34.54 265.637 36.148C267.149 37.708 269.021 38.488 271.253 38.488ZM287.974 40H285.814V20.74H287.866V23.836C288.898 21.436 290.758 20.236 293.446 20.236C294.19 20.236 294.982 20.344 295.822 20.56L295.57 22.612C294.898 22.396 294.214 22.288 293.518 22.288C291.79 22.288 290.434 22.912 289.45 24.16C288.466 25.384 287.974 27.004 287.974 29.02V40Z" fill="#212121"/>
<path d="M87.86 70V56H86.18V62.92C84.94 63.4 83.68 63.62 82.48 63.62C80.14 63.6 78.6 62.78 78.6 60.54V56H76.92V60.46C76.92 63.62 78.88 65.18 82.08 65.22C83.38 65.22 84.76 65 86.18 64.52V70H87.86ZM98.8152 68V64.24C98.8152 61.56 97.1952 60.16 94.6352 60.16C93.0552 60.16 91.7352 60.54 90.9752 60.8V62.36C91.8152 62 92.9952 61.64 94.4752 61.64C96.2352 61.64 97.2152 62.6 97.2152 64.04V64.38C96.4152 64.2 95.3952 64.08 94.5552 64.08C92.4952 64.08 90.2152 64.84 90.2152 67.32C90.2152 69.34 91.8952 70.24 93.5952 70.24C95.1552 70.24 96.3752 69.76 97.3352 68.96C97.6152 69.8 98.3152 70.12 99.0952 70.12C99.4952 70.12 99.9152 70.04 100.295 69.9V68.6C100.055 68.68 99.7952 68.74 99.5552 68.74C99.1352 68.74 98.8152 68.58 98.8152 68ZM91.8552 67.24C91.8552 65.84 93.3752 65.42 94.7752 65.42C95.5552 65.42 96.5352 65.56 97.2152 65.7V67.46C96.3752 68.36 95.1552 68.86 93.9352 68.86C92.8752 68.86 91.8552 68.36 91.8552 67.24ZM101.351 65.24C101.351 68.66 103.971 70.24 106.491 70.24C107.691 70.24 108.711 70.02 109.611 69.58V67.98C108.811 68.46 107.751 68.76 106.711 68.76C104.831 68.76 102.951 67.66 102.951 65.2C102.951 62.68 104.891 61.64 106.751 61.64C107.771 61.64 108.791 61.94 109.511 62.5V60.94C108.691 60.4 107.631 60.16 106.551 60.16C104.051 60.16 101.351 61.74 101.351 65.24ZM115.953 70V61.88H119.473V60.4H110.813V61.88H114.353V70H115.953ZM122.889 70V65.94H128.449V70H130.049V60.4H128.449V64.46H122.889V60.4H121.289V70H122.889ZM137.567 70C139.907 70 141.287 68.66 141.287 66.88C141.287 65.1 139.907 63.76 137.567 63.76H134.607V60.4H133.007V70H137.567ZM134.607 65.2H137.367C138.767 65.2 139.667 65.74 139.667 66.88C139.667 68.02 138.767 68.56 137.367 68.56H134.607V65.2ZM144.747 70V60.4H143.147V70H144.747ZM154.934 58.08V56.64C153.934 57.3 153.114 57.52 152.134 57.52C151.154 57.52 150.334 57.3 149.334 56.64V58.08C150.234 58.72 151.174 58.92 152.134 58.92C153.094 58.92 154.034 58.72 154.934 58.08ZM149.074 70L154.954 62.98V70H156.554V60.4H155.194L149.314 67.42V60.4H147.714V70H149.074ZM165.932 62V60.4H164.492V74.4H166.092V68.56C166.792 69.38 167.972 70.24 169.812 70.24C172.552 70.24 174.612 68.08 174.612 65.2C174.612 62.32 172.552 60.16 169.812 60.16C167.972 60.16 166.792 61.02 165.932 62ZM173.012 65.2C173.012 67.4 171.492 68.76 169.632 68.76C167.912 68.76 166.632 67.64 166.092 66.4V64C166.632 62.76 167.912 61.64 169.632 61.64C171.492 61.64 173.012 63 173.012 65.2ZM176.254 65.2C176.254 68.62 178.734 70.24 181.574 70.24C182.834 70.24 184.094 70 184.974 69.54V67.98C184.154 68.44 182.994 68.76 181.814 68.76C179.874 68.76 178.054 67.92 177.854 65.9H185.494C186.094 63.18 184.734 60.16 181.034 60.16C178.754 60.16 176.254 61.84 176.254 65.2ZM184.074 64.5H177.854C177.974 62.62 179.494 61.64 181.134 61.64C183.574 61.64 184.214 63.48 184.074 64.5ZM189.432 70V61.88H194.992V70H196.592V60.4H187.832V70H189.432ZM198.89 65.2C198.89 68.62 201.37 70.24 204.21 70.24C205.47 70.24 206.73 70 207.61 69.54V67.98C206.79 68.44 205.63 68.76 204.45 68.76C202.51 68.76 200.69 67.92 200.49 65.9H208.13C208.73 63.18 207.37 60.16 203.67 60.16C201.39 60.16 198.89 61.84 198.89 65.2ZM206.71 64.5H200.49C200.61 62.62 202.13 61.64 203.77 61.64C206.21 61.64 206.85 63.48 206.71 64.5ZM214.273 70V61.88H217.793V60.4H209.133V61.88H212.673V70H214.273ZM220.969 70L226.849 62.98V70H228.449V60.4H227.089L221.209 67.42V60.4H219.609V70H220.969ZM235.406 70V61.88H238.926V60.4H230.266V61.88H233.806V70H235.406ZM239.769 65.2C239.769 68.48 242.289 70.24 244.889 70.24C247.509 70.24 250.009 68.48 250.009 65.2C250.009 61.92 247.509 60.16 244.889 60.16C242.289 60.16 239.769 61.92 239.769 65.2ZM248.409 65.2C248.409 67.42 246.849 68.72 244.889 68.72C242.929 68.72 241.369 67.42 241.369 65.2C241.369 62.98 242.929 61.68 244.889 61.68C246.849 61.68 248.409 62.98 248.409 65.2ZM253.744 62V60.4H252.304V74.4H253.904V68.56C254.604 69.38 255.784 70.24 257.624 70.24C260.364 70.24 262.424 68.08 262.424 65.2C262.424 62.32 260.364 60.16 257.624 60.16C255.784 60.16 254.604 61.02 253.744 62ZM260.824 65.2C260.824 67.4 259.304 68.76 257.444 68.76C255.724 68.76 254.444 67.64 253.904 66.4V64C254.444 62.76 255.724 61.64 257.444 61.64C259.304 61.64 260.824 63 260.824 65.2Z" fill="#212121"/>
<path d="M34.5005 69.7441C41.4864 69.7441 47.1495 68.5977 47.1495 67.1836C47.1495 65.7694 41.4864 64.623 34.5005 64.623C27.5147 64.623 21.8516 65.7694 21.8516 67.1836C21.8516 68.5977 27.5147 69.7441 34.5005 69.7441Z" fill="black" fill-opacity="0.25"/>
<path d="M34.4982 5.25562C21.4415 5.25562 10.8203 15.878 10.8203 28.9335C10.8203 46.4017 32.6664 67.1634 33.5965 68.0396C33.8508 68.2771 34.1745 68.3967 34.4982 68.3967C34.8219 68.3967 35.1456 68.2771 35.4001 68.0396C36.3301 67.1634 58.1761 46.4017 58.1761 28.9335C58.1761 15.878 47.555 5.25562 34.4982 5.25562ZM34.4982 45.3365C25.4541 45.3365 18.0951 37.9777 18.0951 28.9334C18.0951 19.8891 25.4542 12.5304 34.4982 12.5304C43.5422 12.5304 50.9014 19.8894 50.9014 28.9335C50.9014 37.9777 43.5423 45.3365 34.4982 45.3365Z" fill="#D04D42"/>
<path d="M52.7857 24.2914C51.7288 20.1355 49.2923 16.531 45.9925 13.9927C42.8102 11.5447 38.8254 10.0881 34.5 10.0881H33.4518L33.4321 10.1189C23.5091 10.6726 15.6328 18.8937 15.6328 28.9553C15.6328 31.4108 16.1022 33.7565 16.9557 35.9082C17.4175 37.0727 17.9926 38.1799 18.6661 39.2172C19.2435 40.1062 19.8937 40.9435 20.6082 41.7209C21.3988 42.5807 22.2675 43.3674 23.2041 44.0686C26.3531 46.4261 30.2635 47.8225 34.5 47.8225C42.3143 47.8225 49.019 43.0719 51.8837 36.3013C52.8389 34.0435 53.3672 31.5612 53.3672 28.9553C53.3672 27.3455 53.165 25.7831 52.7857 24.2914V24.2914Z" fill="white"/>
<path d="M19.5391 21.8262C19.3099 22.3185 19.1037 22.8236 18.9219 23.3404H21.692L19.5391 21.8262Z" fill="#348BF2"/>
<path d="M29.1418 13.0706C26.6989 13.9382 24.5164 15.3583 22.7422 17.1819L29.1418 21.4687V13.0706Z" fill="#348BF2"/>
<path d="M46.7199 17.1819C44.9457 15.3582 42.7631 13.9382 40.3203 13.0706V21.4687L46.7199 17.1819Z" fill="#348BF2"/>
<path d="M49.9263 36.0843C50.1556 35.592 50.3616 35.0869 50.5435 34.5701H47.7734L49.9263 36.0843Z" fill="#348BF2"/>
<path d="M50.5435 23.3404C50.3617 22.8236 50.1556 22.3183 49.9263 21.8262L47.7734 23.3404H50.5435Z" fill="#348BF2"/>
<path d="M22.7422 40.7285C24.5164 42.5522 26.699 43.9722 29.1418 44.8398V36.4417L22.7422 40.7285Z" fill="#348BF2"/>
<path d="M18.9219 34.5701C19.1037 35.0869 19.3099 35.5921 19.5391 36.0843L21.692 34.5701H18.9219Z" fill="#348BF2"/>
<path d="M40.3203 44.8398C42.7632 43.9722 44.9457 42.5521 46.7199 40.7285L40.3203 36.4417V44.8398Z" fill="#348BF2"/>
<path d="M29.1429 21.4688L22.7433 17.1819C22.3786 17.5568 22.0312 17.9485 21.7022 18.3562L29.1429 23.3404H24.4862L20.2799 20.4143C20.0117 20.8716 19.7644 21.3425 19.5392 21.8262L21.6921 23.3404H18.922C18.7079 23.9491 18.527 24.5735 18.3828 25.212H29.1429V32.6985H18.3828C18.527 33.337 18.7079 33.9614 18.922 34.5701H21.6921L19.5392 36.0844C19.7644 36.5679 20.0117 37.0389 20.2799 37.4962L24.4862 34.5701H29.1429L21.7022 39.5543C22.0311 39.962 22.3785 40.3537 22.7433 40.7286L29.1429 36.4418V44.8399C29.7487 45.0552 30.3701 45.2368 31.0056 45.3817C31.0056 44.2431 31.0056 13.684 31.0056 12.5288C30.3702 12.6737 29.7487 12.8553 29.1429 13.0706V21.4688Z" fill="white"/>
<path d="M40.3159 25.212H51.0759C50.9317 24.5735 50.7509 23.9491 50.5368 23.3404H47.7666L49.9195 21.8262C49.6943 21.3426 49.447 20.8716 49.1788 20.4143L44.9725 23.3404H40.3159L47.7565 18.3562C47.4277 17.9485 47.0803 17.5568 46.7155 17.1819L40.3159 21.4688V13.0706C39.7101 12.8553 39.0887 12.6737 38.4531 12.5288V45.3817C39.0885 45.2368 39.7101 45.0552 40.3159 44.8399V36.4418L46.7155 40.7286C47.0801 40.3537 47.4276 39.962 47.7565 39.5543L40.3159 34.5701H44.9725L49.1788 37.4962C49.447 37.0389 49.6943 36.568 49.9195 36.0844L47.7666 34.5701H50.5368C50.7509 33.9614 50.9317 33.337 51.0759 32.6985H40.3159V25.212Z" fill="white"/>
<path d="M18.3849 32.6984H29.145V25.2119H18.3849C17.8467 27.5951 17.8136 30.1687 18.3849 32.6984Z" fill="#D04D42"/>
<path d="M51.0804 25.2119H40.3203V32.6984H51.0804C51.6185 30.3151 51.6517 27.7415 51.0804 25.2119Z" fill="#D04D42"/>
<path d="M31.0078 12.5288V45.3817C33.3797 45.9225 35.941 45.9558 38.4586 45.3817C38.4586 43.2508 38.4586 13.9875 38.4586 12.5288C36.0867 11.988 33.5254 11.9547 31.0078 12.5288V12.5288Z" fill="#D04D42"/>
<path d="M49.1833 20.4143C48.7595 19.692 48.2837 19.0042 47.761 18.3562L40.3203 23.3404H44.977L49.1833 20.4143Z" fill="#D04D42"/>
<path d="M20.2812 20.4143L24.4876 23.3404H29.1442L21.7036 18.3562C21.1808 19.0042 20.705 19.692 20.2812 20.4143V20.4143Z" fill="#D04D42"/>
<path d="M20.2812 37.4961C20.7051 38.2184 21.1808 38.9063 21.7036 39.5542L29.1442 34.5701H24.4876L20.2812 37.4961Z" fill="#D04D42"/>
<path d="M40.3203 34.5701L47.761 39.5542C48.2837 38.9062 48.7596 38.2184 49.1833 37.4961L44.977 34.5701H40.3203Z" fill="#D04D42"/>
</svg>
