<svg width="85" height="85" viewBox="0 0 85 85" fill="none" xmlns="http://www.w3.org/2000/svg">
<rect width="85" height="85" rx="42.5" fill="white"/>
<path d="M65.8258 36.1721C65.8273 35.5861 65.7014 35.0067 65.4568 34.4741C65.2122 33.9416 64.8547 33.4685 64.4092 33.0878C63.9636 32.7071 63.4406 32.4278 62.8764 32.2693C62.3122 32.1108 61.7203 32.0768 61.1416 32.1698C60.563 32.2627 60.0115 32.4804 59.5253 32.8076C59.0391 33.1348 58.6299 33.5639 58.326 34.065C58.022 34.5661 57.8307 35.1272 57.7652 35.7096C57.6997 36.292 57.7616 36.8817 57.9466 37.4378L54.7825 39.7405L52.7019 31.8444C53.397 31.4028 53.9407 30.7595 54.2602 30.0006C54.5798 29.2416 54.66 28.4032 54.4902 27.5974C54.3203 26.7916 53.9085 26.0569 53.3098 25.4915C52.7111 24.9261 51.9541 24.5569 51.1399 24.4334C50.3257 24.3099 49.4933 24.4379 48.7538 24.8004C48.0144 25.1628 47.4032 25.7423 47.002 26.4615C46.6009 27.1807 46.4288 28.0052 46.5089 28.8247C46.5891 29.6443 46.9175 30.4199 47.4503 31.0478L43.5016 37.3675L39.5528 31.0492C40.0852 30.4214 40.4133 29.6461 40.4931 28.8269C40.573 28.0077 40.4009 27.1837 39.9998 26.4649C39.5988 25.7461 38.9878 25.1669 38.2487 24.8047C37.5096 24.4426 36.6775 24.3146 35.8637 24.4381C35.0499 24.5615 34.2932 24.9305 33.6947 25.4955C33.0963 26.0606 32.6846 26.795 32.5147 27.6003C32.3448 28.4057 32.4249 29.2437 32.7441 30.0024C33.0633 30.7611 33.6066 31.4042 34.3012 31.8458L32.2227 39.7433L29.0587 37.4406C29.3196 36.654 29.3324 35.8062 29.0954 35.0121C28.8585 34.218 28.3832 33.5159 27.7339 33.0009C27.0846 32.4859 26.2927 32.183 25.4655 32.133C24.6383 32.0831 23.8157 32.2886 23.1092 32.7218C22.4027 33.1549 21.8464 33.7948 21.5156 34.5546C21.1848 35.3145 21.0956 36.1576 21.26 36.9699C21.4244 37.7821 21.8345 38.5242 22.4347 39.0956C23.0349 39.667 23.7963 40.0402 24.6156 40.1645L26.6308 52.7757C25.7412 53.1044 24.9955 53.7355 24.5244 54.5585C24.0533 55.3816 23.8867 56.3442 24.0538 57.2777C24.221 58.2112 24.7112 59.0562 25.4387 59.6646C26.1661 60.2731 27.0844 60.6062 28.0328 60.6057H58.9703C59.9187 60.6062 60.837 60.2731 61.5644 59.6646C62.2919 59.0562 62.7821 58.2112 62.9493 57.2777C63.1164 56.3442 62.9498 55.3816 62.4787 54.5585C62.0076 53.7355 61.2619 53.1044 60.3723 52.7757L62.3896 40.1645C63.3448 40.0191 64.2163 39.5366 64.8466 38.8043C65.4768 38.072 65.8242 37.1383 65.8258 36.1721ZM50.5328 26.8557C50.8457 26.8557 51.1516 26.9485 51.4117 27.1224C51.6719 27.2962 51.8747 27.5433 51.9944 27.8324C52.1141 28.1214 52.1455 28.4395 52.0844 28.7464C52.0234 29.0533 51.8727 29.3352 51.6515 29.5564C51.4302 29.7777 51.1483 29.9284 50.8414 29.9894C50.5346 30.0504 50.2165 30.0191 49.9274 29.8994C49.6383 29.7796 49.3912 29.5769 49.2174 29.3167C49.0436 29.0565 48.9508 28.7507 48.9508 28.4378C48.9513 28.0184 49.1182 27.6163 49.4148 27.3197C49.7113 27.0232 50.1134 26.8563 50.5328 26.8557V26.8557ZM36.4703 26.8557C36.7832 26.8557 37.0891 26.9485 37.3492 27.1224C37.6094 27.2962 37.8122 27.5433 37.9319 27.8324C38.0517 28.1214 38.083 28.4395 38.0219 28.7464C37.9609 29.0533 37.8102 29.3352 37.589 29.5564C37.3677 29.7777 37.0858 29.9284 36.7789 29.9894C36.4721 30.0504 36.154 30.0191 35.8649 29.8994C35.5758 29.7796 35.3287 29.5769 35.1549 29.3167C34.9811 29.0565 34.8883 28.7507 34.8883 28.4378C34.8888 28.0184 35.0557 27.6163 35.3523 27.3197C35.6488 27.0232 36.0509 26.8563 36.4703 26.8557V26.8557ZM27.606 39.429L32.2312 42.7921C32.393 42.9099 32.5811 42.9864 32.7792 43.015C32.9773 43.0436 33.1793 43.0234 33.3678 42.9562C33.5564 42.889 33.7256 42.7768 33.8609 42.6293C33.9963 42.4819 34.0936 42.3036 34.1444 42.11L36.6812 32.4702C36.9458 32.4565 37.2084 32.417 37.4652 32.3521L42.4574 40.3403C42.5681 40.5171 42.722 40.6629 42.9045 40.7639C43.087 40.865 43.2922 40.918 43.5009 40.918C43.7095 40.918 43.9147 40.865 44.0972 40.7639C44.2797 40.6629 44.4336 40.5171 44.5443 40.3403L49.5365 32.3521C49.7933 32.417 50.0559 32.4565 50.3205 32.4702L52.8573 42.11C52.9081 42.3036 53.0054 42.4819 53.1408 42.6293C53.2761 42.7768 53.4453 42.889 53.6339 42.9562C53.8224 43.0234 54.0245 43.0436 54.2225 43.015C54.4206 42.9864 54.6087 42.9099 54.7705 42.7921L59.3957 39.429C59.5734 39.56 59.7615 39.6762 59.9582 39.7764L57.9191 52.5198H29.0819L27.0428 39.7764C27.2397 39.6762 27.4281 39.56 27.606 39.429ZM25.2203 37.7542C24.9074 37.7542 24.6015 37.6614 24.3414 37.4876C24.0812 37.3137 23.8784 37.0666 23.7587 36.7776C23.639 36.4885 23.6076 36.1704 23.6687 35.8635C23.7297 35.5566 23.8804 35.2747 24.1016 35.0535C24.3229 34.8322 24.6048 34.6816 24.9117 34.6205C25.2185 34.5595 25.5366 34.5908 25.8257 34.7105C26.1148 34.8303 26.3619 35.0331 26.5357 35.2932C26.7096 35.5534 26.8023 35.8593 26.8023 36.1721C26.8018 36.5916 26.6349 36.9936 26.3384 37.2902C26.0418 37.5868 25.6397 37.7536 25.2203 37.7542V37.7542ZM60.5523 56.5628C60.5518 56.9822 60.3849 57.3843 60.0884 57.6808C59.7918 57.9774 59.3897 58.1442 58.9703 58.1448H28.0328C27.6132 58.1448 27.2108 57.9781 26.9141 57.6814C26.6175 57.3848 26.4508 56.9824 26.4508 56.5628C26.4508 56.1432 26.6175 55.7408 26.9141 55.4441C27.2108 55.1474 27.6132 54.9807 28.0328 54.9807H58.9703C59.3897 54.9813 59.7918 55.1482 60.0884 55.4447C60.3849 55.7413 60.5518 56.1434 60.5523 56.5628V56.5628ZM60.2008 36.1721C60.2008 35.8593 60.2936 35.5534 60.4674 35.2932C60.6412 35.0331 60.8883 34.8303 61.1774 34.7105C61.4665 34.5908 61.7846 34.5595 62.0914 34.6205C62.3983 34.6816 62.6802 34.8322 62.9015 35.0535C63.1227 35.2747 63.2734 35.5566 63.3344 35.8635C63.3955 36.1704 63.3641 36.4885 63.2444 36.7776C63.1247 37.0666 62.9219 37.3137 62.6617 37.4876C62.4016 37.6614 62.0957 37.7542 61.7828 37.7542C61.3634 37.7536 60.9613 37.5868 60.6648 37.2902C60.3682 36.9936 60.2013 36.5916 60.2008 36.1721V36.1721Z" fill="#D04D42"/>
<path d="M43.4961 48.6523C44.1757 48.6523 44.7266 48.1014 44.7266 47.4219C44.7266 46.7423 44.1757 46.1914 43.4961 46.1914C42.8165 46.1914 42.2656 46.7423 42.2656 47.4219C42.2656 48.1014 42.8165 48.6523 43.4961 48.6523Z" fill="#D04D42"/>
<path d="M37.8711 48.6523C38.5507 48.6523 39.1016 48.1014 39.1016 47.4219C39.1016 46.7423 38.5507 46.1914 37.8711 46.1914C37.1915 46.1914 36.6406 46.7423 36.6406 47.4219C36.6406 48.1014 37.1915 48.6523 37.8711 48.6523Z" fill="#D04D42"/>
<path d="M49.1211 48.6523C49.8007 48.6523 50.3516 48.1014 50.3516 47.4219C50.3516 46.7423 49.8007 46.1914 49.1211 46.1914C48.4415 46.1914 47.8906 46.7423 47.8906 47.4219C47.8906 48.1014 48.4415 48.6523 49.1211 48.6523Z" fill="#D04D42"/>
</svg>
