<svg width="85" height="85" viewBox="0 0 85 85" fill="none" xmlns="http://www.w3.org/2000/svg">
<rect width="85" height="85" rx="42.5" fill="#348BF2"/>
<path d="M61.6576 29.1981L58.8537 29.1979V26.2955C58.8537 25.631 58.3676 25.0664 57.7103 24.9681C57.5956 24.9508 54.864 24.5541 51.5747 25.1526C47.9078 25.8198 44.9834 27.4652 42.9999 29.9526C41.0164 27.4652 38.0919 25.8198 34.4251 25.1526C31.1357 24.5542 28.4042 24.9508 28.2895 24.9681C27.6323 25.0665 27.1461 25.6311 27.1461 26.2955V29.1979H24.3422C23.6011 29.1979 23 29.799 23 30.5403V55.8338C23 56.2684 23.2104 56.6761 23.5647 56.928C23.9191 57.1798 24.3733 57.2445 24.7837 57.1014C24.8844 57.0665 34.9427 53.6338 42.4429 57.055C42.7968 57.2164 43.2032 57.2164 43.5571 57.055C51.0363 53.6435 61.1161 57.0668 61.2163 57.1014C61.3601 57.1515 61.5091 57.1762 61.6575 57.1762C61.9327 57.1762 62.205 57.0916 62.4353 56.9281C62.7896 56.6762 63 56.2686 63 55.8339V30.5404C62.9999 29.7992 62.3989 29.1981 61.6576 29.1981ZM25.6846 54.0379V31.8825H27.1461V49.758C27.1461 50.148 27.3168 50.5184 27.6118 50.7734C27.9069 51.0283 28.2994 51.1427 28.6851 51.0857C28.7592 51.0749 34.5903 50.2744 38.8505 53.1973C33.6027 52.3 28.3504 53.3379 25.6846 54.0379ZM41.6577 51.9868C39.7814 50.2915 37.3373 49.1451 34.4251 48.6153C33.0237 48.3602 31.7235 48.2858 30.6837 48.2858C30.3751 48.2858 30.0893 48.2924 29.8308 48.3028V27.5281H29.8307C32.4105 27.4117 38.6861 27.6875 41.6577 32.7249V51.9868ZM44.3421 32.7251C47.3031 27.7092 53.5886 27.4208 56.1692 27.5314V48.3028C55.0402 48.2573 53.3921 48.2845 51.5747 48.6153C48.6625 49.1451 46.2185 50.2913 44.3421 51.9868V32.7251ZM47.145 53.1981C51.4057 50.2734 57.2399 51.0748 57.3126 51.0855C57.6993 51.1436 58.0915 51.0299 58.3875 50.7751C58.6835 50.52 58.8537 50.1489 58.8537 49.758V31.8827H60.3153V54.0379C57.6486 53.3377 52.3942 52.2993 47.145 53.1981Z" fill="white"/>
</svg>
