<svg width="85" height="85" viewBox="0 0 85 85" fill="none" xmlns="http://www.w3.org/2000/svg">
<rect width="85" height="85" rx="42.5" fill="#348BF2"/>
<g clip-path="url(#clip0_8456_25)">
<path d="M67.0606 35.3161L43.6213 25.1591C43.2249 24.9873 42.7751 24.9873 42.3787 25.1591L18.9394 35.3161C17.687 35.8588 17.6867 37.6409 18.9394 38.1836L27.3739 41.8385V51.5947C27.3739 56.8521 34.2376 60.9704 43 60.9704C51.7624 60.9704 58.6262 56.8521 58.6262 51.5947V41.8385L60.1888 41.1614V57.8451C60.1888 58.7081 60.8885 59.4078 61.7514 59.4078C62.6144 59.4078 63.314 58.7081 63.314 57.8451V39.8072L67.0606 38.1837C68.313 37.641 68.3132 35.8589 67.0606 35.3161V35.3161ZM43 28.2959L62.5092 36.7499L60.9619 37.4204L43.1938 35.1993C42.3374 35.093 41.5565 35.6997 41.4494 36.5561C41.3424 37.4124 41.9498 38.1934 42.8062 38.3004L55.3209 39.8648L43 45.2039C31.978 40.4276 34.3255 41.4449 23.4908 36.7498L43 28.2959ZM55.5009 51.5948C55.5009 53.067 54.2926 54.5829 52.1856 55.7534C47.1675 58.5412 38.8472 58.5494 33.8145 55.7534C31.7075 54.5829 30.4991 53.067 30.4991 51.5948V43.1929L42.3787 48.3407C42.7744 48.5122 43.2242 48.5128 43.6213 48.3407L55.5009 43.1929V51.5948Z" fill="white"/>
</g>
<defs>
<clipPath id="clip0_8456_25">
<rect width="50" height="50" fill="white" transform="translate(18 18)"/>
</clipPath>
</defs>
</svg>
