<svg width="55" height="55" viewBox="0 0 55 55" fill="none" xmlns="http://www.w3.org/2000/svg">
<g clip-path="url(#clip0_8259_11)">
<path d="M27.5 55C42.6878 55 55 42.6878 55 27.5C55 12.3122 42.6878 0 27.5 0C12.3122 0 0 12.3122 0 27.5C0 42.6878 12.3122 55 27.5 55Z" fill="#039BE5"/>
<path d="M12.5874 26.9039L39.102 16.6808C40.3326 16.2362 41.4074 16.981 41.0087 18.8418L41.011 18.8395L36.4964 40.1085C36.1618 41.6164 35.2658 41.9831 34.0122 41.2727L27.1372 36.2058L23.8212 39.4004C23.4545 39.767 23.1451 40.0764 22.4347 40.0764L22.9229 33.08L35.6645 21.5689C36.2191 21.0808 35.5408 20.8058 34.8097 21.2916L19.0637 31.2054L12.2758 29.0879C10.8022 28.6204 10.7701 27.6143 12.5874 26.9039Z" fill="white"/>
</g>
<defs>
<clipPath id="clip0_8259_11">
<rect width="55" height="55" fill="white"/>
</clipPath>
</defs>
</svg>
