<svg width="55" height="55" viewBox="0 0 55 55" fill="none" xmlns="http://www.w3.org/2000/svg">
<g clip-path="url(#clip0_8259_4)">
<path d="M27.5 55C42.6878 55 55 42.6878 55 27.5C55 12.3122 42.6878 0 27.5 0C12.3122 0 0 12.3122 0 27.5C0 42.6878 12.3122 55 27.5 55Z" fill="#2AA81A"/>
<path d="M37.201 17.799C34.9126 15.4847 31.8723 14.0649 28.6288 13.7958C25.3854 13.5266 22.1526 14.426 19.5142 16.3315C16.8757 18.2369 15.0054 21.0229 14.241 24.1864C13.4766 27.35 13.8684 30.6826 15.3457 33.5825L13.8983 40.6095C13.8828 40.6797 13.8822 40.7524 13.8966 40.8228C13.9109 40.8932 13.9399 40.9599 13.9816 41.0184C14.0413 41.107 14.1266 41.1753 14.2262 41.2141C14.3258 41.2529 14.4349 41.2604 14.5388 41.2355L21.4138 39.6036C24.3058 41.0422 27.6145 41.4079 30.7509 40.6356C33.8872 39.8633 36.6478 38.0031 38.5412 35.3862C40.4347 32.7693 41.3381 29.5654 41.0907 26.3449C40.8432 23.1243 39.461 20.096 37.1901 17.799H37.201ZM35.0516 34.9395C33.469 36.5193 31.431 37.5633 29.2243 37.9249C27.0175 38.2864 24.753 37.9472 22.749 36.9549L21.7865 36.4773L17.5638 37.476V37.4217L18.4539 33.1628L17.9835 32.2365C16.9589 30.2271 16.5971 27.9447 16.9501 25.7169C17.3031 23.4891 18.3527 21.4304 19.9483 19.8362C21.9519 17.8347 24.668 16.7105 27.5 16.7105C30.3319 16.7105 33.0481 17.8347 35.0516 19.8362L35.0987 19.9013C37.0762 21.9091 38.1801 24.6171 38.1699 27.4352C38.1597 30.2533 37.0363 32.9532 35.0444 34.9467L35.0516 34.9395Z" fill="white"/>
<path d="M34.6764 31.8424C34.159 32.6565 33.3376 33.6516 32.3136 33.9013C30.5044 34.3355 27.7507 33.9013 24.3024 30.7134L24.259 30.6736C21.2593 27.873 20.4633 25.5391 20.6406 23.6901C20.7455 22.6371 21.6211 21.6891 22.3593 21.0667C22.4767 20.9678 22.6155 20.8977 22.7648 20.8619C22.9142 20.8262 23.0697 20.826 23.2192 20.8611C23.3686 20.8963 23.5077 20.9659 23.6255 21.0644C23.7432 21.163 23.8362 21.2877 23.8971 21.4286L25.008 23.9398C25.0805 24.1014 25.1077 24.2797 25.0867 24.4557C25.0656 24.6316 24.9972 24.7985 24.8886 24.9384L24.3241 25.6621C24.2068 25.8124 24.1369 25.9941 24.1234 26.1843C24.1098 26.3744 24.1533 26.5642 24.2481 26.7296C24.7843 27.5198 25.4259 28.2332 26.155 28.85C26.9395 29.605 27.8293 30.2424 28.7965 30.7424C28.973 30.8135 29.1667 30.8305 29.3529 30.7912C29.5392 30.7519 29.7095 30.6581 29.8422 30.5217L30.4899 29.8631C30.6131 29.7306 30.7707 29.6348 30.945 29.5862C31.1193 29.5377 31.3037 29.5383 31.4777 29.5881L34.1192 30.3444C34.2688 30.387 34.4064 30.4642 34.5207 30.5698C34.635 30.6754 34.7228 30.8064 34.7771 30.9523C34.8313 31.0982 34.8505 31.2547 34.833 31.4094C34.8155 31.564 34.7619 31.7123 34.6764 31.8424Z" fill="white"/>
</g>
<defs>
<clipPath id="clip0_8259_4">
<rect width="55" height="55" fill="white"/>
</clipPath>
</defs>
</svg>
